<svg xmlns="http://www.w3.org/2000/svg" width="32" height="32" viewBox="0 0 32 32">
  <rect width="32" height="32" rx="7" fill="#0b0e16"/>
  <defs>
    <radialGradient id="b" cx="38%" cy="32%" r="78%">
      <stop offset="0" stop-color="#ecd2a0"/>
      <stop offset="55%" stop-color="#c9a86a"/>
      <stop offset="100%" stop-color="#9c7f4e"/>
    </radialGradient>
  </defs>
  <g fill="url(#b)">
    <g>
      <rect x="14.4" y="2.7" width="3.2" height="5.2" rx="1"/>
      <rect x="14.4" y="2.7" width="3.2" height="5.2" rx="1" transform="rotate(45 16 16)"/>
      <rect x="14.4" y="2.7" width="3.2" height="5.2" rx="1" transform="rotate(90 16 16)"/>
      <rect x="14.4" y="2.7" width="3.2" height="5.2" rx="1" transform="rotate(135 16 16)"/>
      <rect x="14.4" y="2.7" width="3.2" height="5.2" rx="1" transform="rotate(180 16 16)"/>
      <rect x="14.4" y="2.7" width="3.2" height="5.2" rx="1" transform="rotate(225 16 16)"/>
      <rect x="14.4" y="2.7" width="3.2" height="5.2" rx="1" transform="rotate(270 16 16)"/>
      <rect x="14.4" y="2.7" width="3.2" height="5.2" rx="1" transform="rotate(315 16 16)"/>
    </g>
    <circle cx="16" cy="16" r="8.7"/>
  </g>
  <circle cx="16" cy="16" r="3.9" fill="#0b0e16"/>
  <circle cx="16" cy="16" r="1.5" fill="#ecd2a0"/>
</svg>
