<svg xmlns="http://www.w3.org/2000/svg" width="1396" height="1780" viewBox="0 0 1396 1780" font-family="Inter, system-ui, sans-serif">
<defs>
<linearGradient id="bg" x1="0" y1="0" x2="0" y2="1"><stop offset="0" stop-color="#070810"/><stop offset=".45" stop-color="#0c0f18"/><stop offset="1" stop-color="#070810"/></linearGradient>
<radialGradient id="glow" cx="50%" cy="32%" r="60%"><stop offset="0" stop-color="#1a1f2e" stop-opacity=".7"/><stop offset="1" stop-color="#0a0c14" stop-opacity="0"/></radialGradient>
<linearGradient id="brass" x1="0" y1="0" x2="1" y2="1"><stop offset="0" stop-color="#9c7f4e"/><stop offset=".5" stop-color="#c9a86a"/><stop offset="1" stop-color="#ecd2a0"/></linearGradient>
<radialGradient id="gear" cx="38%" cy="32%" r="80%"><stop offset="0" stop-color="#ecd2a0"/><stop offset=".5" stop-color="#c9a86a"/><stop offset="1" stop-color="#9c7f4e"/></radialGradient>
<linearGradient id="title" x1="0" y1="0" x2="0" y2="1"><stop offset="0" stop-color="#fffdf8"/><stop offset=".55" stop-color="#e7dcc4"/><stop offset="1" stop-color="#b89a63"/></linearGradient>
<radialGradient id="cream" cx="50%" cy="40%" r="75%"><stop offset="0" stop-color="#f7f0e0"/><stop offset="1" stop-color="#f4ecda"/></radialGradient>
<style>@import url("https://fonts.googleapis.com/css2?family=Cormorant+Garamond:ital,wght@0,500;0,600;1,500&amp;family=Inter:wght@300;400;500&amp;family=Space+Mono&amp;display=swap");.serif{font-family:"Cormorant Garamond",Georgia,serif;}.mono{font-family:"Space Mono",monospace;}</style>
</defs>
<rect x="0" y="0" width="1396" height="1780" rx="52" fill="url(#bg)"/>
<rect x="0" y="0" width="1396" height="1780" rx="52" fill="url(#glow)"/>
<rect x="22" y="22" width="1352" height="1736" rx="40" fill="none" stroke="#c9a86a" stroke-opacity=".4" stroke-width="2"/>
<path d="M62 102 L62 62 L102 62" fill="none" stroke="#c9a86a" stroke-opacity=".55" stroke-width="2.2"/>
<path d="M1334 102 L1334 62 L1294 62" fill="none" stroke="#c9a86a" stroke-opacity=".55" stroke-width="2.2"/>
<path d="M62 1678 L62 1718 L102 1718" fill="none" stroke="#c9a86a" stroke-opacity=".55" stroke-width="2.2"/>
<path d="M1334 1678 L1334 1718 L1294 1718" fill="none" stroke="#c9a86a" stroke-opacity=".55" stroke-width="2.2"/>
<text class="mono" x="698.0" y="148" text-anchor="middle" fill="#c9a86a" font-size="25" letter-spacing="10">A  MECHANISM  FOR  SEEING  TIME</text>
<text class="serif" x="698.0" y="282" text-anchor="middle" fill="url(#title)" font-size="158" font-weight="600" letter-spacing="22">ORRERY</text>
<text class="serif" x="698.0" y="346" text-anchor="middle" fill="#ecd2a0" font-size="52" font-style="italic">A Mechanism for Seeing Time.</text>
<rect x="138" y="390" width="1120" height="1120" rx="42" fill="url(#cream)" stroke="#e7dcc2" stroke-width="2"/>
<rect x="153" y="405" width="1090" height="1090" rx="30" fill="none" stroke="#c9a86a" stroke-opacity=".28" stroke-width="1.6"/>
<g fill="#15121b">
<rect x="447.2" y="539.2" width="21.6" height="21.6" rx="10.8"/>
<rect x="467.2" y="539.2" width="21.6" height="21.6" rx="10.8"/>
<rect x="487.2" y="539.2" width="21.6" height="21.6" rx="10.8"/>
<rect x="527.2" y="539.2" width="21.6" height="21.6" rx="10.8"/>
<rect x="547.2" y="539.2" width="21.6" height="21.6" rx="10.8"/>
<rect x="587.2" y="539.2" width="21.6" height="21.6" rx="10.8"/>
<rect x="607.2" y="539.2" width="21.6" height="21.6" rx="10.8"/>
<rect x="647.2" y="539.2" width="21.6" height="21.6" rx="10.8"/>
<rect x="687.2" y="539.2" width="21.6" height="21.6" rx="10.8"/>
<rect x="707.2" y="539.2" width="21.6" height="21.6" rx="10.8"/>
<rect x="847.2" y="539.2" width="21.6" height="21.6" rx="10.8"/>
<rect x="867.2" y="539.2" width="21.6" height="21.6" rx="10.8"/>
<rect x="887.2" y="539.2" width="21.6" height="21.6" rx="10.8"/>
<rect x="907.2" y="539.2" width="21.6" height="21.6" rx="10.8"/>
<rect x="927.2" y="539.2" width="21.6" height="21.6" rx="10.8"/>
<rect x="447.2" y="559.2" width="21.6" height="21.6" rx="10.8"/>
<rect x="487.2" y="559.2" width="21.6" height="21.6" rx="10.8"/>
<rect x="507.2" y="559.2" width="21.6" height="21.6" rx="10.8"/>
<rect x="527.2" y="559.2" width="21.6" height="21.6" rx="10.8"/>
<rect x="547.2" y="559.2" width="21.6" height="21.6" rx="10.8"/>
<rect x="567.2" y="559.2" width="21.6" height="21.6" rx="10.8"/>
<rect x="647.2" y="559.2" width="21.6" height="21.6" rx="10.8"/>
<rect x="707.2" y="559.2" width="21.6" height="21.6" rx="10.8"/>
<rect x="827.2" y="559.2" width="21.6" height="21.6" rx="10.8"/>
<rect x="867.2" y="559.2" width="21.6" height="21.6" rx="10.8"/>
<rect x="447.2" y="579.2" width="21.6" height="21.6" rx="10.8"/>
<rect x="467.2" y="579.2" width="21.6" height="21.6" rx="10.8"/>
<rect x="487.2" y="579.2" width="21.6" height="21.6" rx="10.8"/>
<rect x="507.2" y="579.2" width="21.6" height="21.6" rx="10.8"/>
<rect x="587.2" y="579.2" width="21.6" height="21.6" rx="10.8"/>
<rect x="607.2" y="579.2" width="21.6" height="21.6" rx="10.8"/>
<rect x="647.2" y="579.2" width="21.6" height="21.6" rx="10.8"/>
<rect x="667.2" y="579.2" width="21.6" height="21.6" rx="10.8"/>
<rect x="707.2" y="579.2" width="21.6" height="21.6" rx="10.8"/>
<rect x="727.2" y="579.2" width="21.6" height="21.6" rx="10.8"/>
<rect x="747.2" y="579.2" width="21.6" height="21.6" rx="10.8"/>
<rect x="807.2" y="579.2" width="21.6" height="21.6" rx="10.8"/>
<rect x="827.2" y="579.2" width="21.6" height="21.6" rx="10.8"/>
<rect x="847.2" y="579.2" width="21.6" height="21.6" rx="10.8"/>
<rect x="867.2" y="579.2" width="21.6" height="21.6" rx="10.8"/>
<rect x="887.2" y="579.2" width="21.6" height="21.6" rx="10.8"/>
<rect x="487.2" y="599.2" width="21.6" height="21.6" rx="10.8"/>
<rect x="507.2" y="599.2" width="21.6" height="21.6" rx="10.8"/>
<rect x="527.2" y="599.2" width="21.6" height="21.6" rx="10.8"/>
<rect x="687.2" y="599.2" width="21.6" height="21.6" rx="10.8"/>
<rect x="707.2" y="599.2" width="21.6" height="21.6" rx="10.8"/>
<rect x="727.2" y="599.2" width="21.6" height="21.6" rx="10.8"/>
<rect x="747.2" y="599.2" width="21.6" height="21.6" rx="10.8"/>
<rect x="827.2" y="599.2" width="21.6" height="21.6" rx="10.8"/>
<rect x="907.2" y="599.2" width="21.6" height="21.6" rx="10.8"/>
<rect x="927.2" y="599.2" width="21.6" height="21.6" rx="10.8"/>
<rect x="487.2" y="619.2" width="21.6" height="21.6" rx="10.8"/>
<rect x="507.2" y="619.2" width="21.6" height="21.6" rx="10.8"/>
<rect x="527.2" y="619.2" width="21.6" height="21.6" rx="10.8"/>
<rect x="547.2" y="619.2" width="21.6" height="21.6" rx="10.8"/>
<rect x="587.2" y="619.2" width="21.6" height="21.6" rx="10.8"/>
<rect x="607.2" y="619.2" width="21.6" height="21.6" rx="10.8"/>
<rect x="667.2" y="619.2" width="21.6" height="21.6" rx="10.8"/>
<rect x="687.2" y="619.2" width="21.6" height="21.6" rx="10.8"/>
<rect x="707.2" y="619.2" width="21.6" height="21.6" rx="10.8"/>
<rect x="747.2" y="619.2" width="21.6" height="21.6" rx="10.8"/>
<rect x="807.2" y="619.2" width="21.6" height="21.6" rx="10.8"/>
<rect x="887.2" y="619.2" width="21.6" height="21.6" rx="10.8"/>
<rect x="907.2" y="619.2" width="21.6" height="21.6" rx="10.8"/>
<rect x="927.2" y="619.2" width="21.6" height="21.6" rx="10.8"/>
<rect x="447.2" y="639.2" width="21.6" height="21.6" rx="10.8"/>
<rect x="507.2" y="639.2" width="21.6" height="21.6" rx="10.8"/>
<rect x="527.2" y="639.2" width="21.6" height="21.6" rx="10.8"/>
<rect x="547.2" y="639.2" width="21.6" height="21.6" rx="10.8"/>
<rect x="567.2" y="639.2" width="21.6" height="21.6" rx="10.8"/>
<rect x="627.2" y="639.2" width="21.6" height="21.6" rx="10.8"/>
<rect x="687.2" y="639.2" width="21.6" height="21.6" rx="10.8"/>
<rect x="707.2" y="639.2" width="21.6" height="21.6" rx="10.8"/>
<rect x="747.2" y="639.2" width="21.6" height="21.6" rx="10.8"/>
<rect x="767.2" y="639.2" width="21.6" height="21.6" rx="10.8"/>
<rect x="807.2" y="639.2" width="21.6" height="21.6" rx="10.8"/>
<rect x="827.2" y="639.2" width="21.6" height="21.6" rx="10.8"/>
<rect x="847.2" y="639.2" width="21.6" height="21.6" rx="10.8"/>
<rect x="867.2" y="639.2" width="21.6" height="21.6" rx="10.8"/>
<rect x="887.2" y="639.2" width="21.6" height="21.6" rx="10.8"/>
<rect x="447.2" y="659.2" width="21.6" height="21.6" rx="10.8"/>
<rect x="487.2" y="659.2" width="21.6" height="21.6" rx="10.8"/>
<rect x="527.2" y="659.2" width="21.6" height="21.6" rx="10.8"/>
<rect x="567.2" y="659.2" width="21.6" height="21.6" rx="10.8"/>
<rect x="607.2" y="659.2" width="21.6" height="21.6" rx="10.8"/>
<rect x="647.2" y="659.2" width="21.6" height="21.6" rx="10.8"/>
<rect x="687.2" y="659.2" width="21.6" height="21.6" rx="10.8"/>
<rect x="727.2" y="659.2" width="21.6" height="21.6" rx="10.8"/>
<rect x="767.2" y="659.2" width="21.6" height="21.6" rx="10.8"/>
<rect x="807.2" y="659.2" width="21.6" height="21.6" rx="10.8"/>
<rect x="847.2" y="659.2" width="21.6" height="21.6" rx="10.8"/>
<rect x="887.2" y="659.2" width="21.6" height="21.6" rx="10.8"/>
<rect x="927.2" y="659.2" width="21.6" height="21.6" rx="10.8"/>
<rect x="447.2" y="679.2" width="21.6" height="21.6" rx="10.8"/>
<rect x="467.2" y="679.2" width="21.6" height="21.6" rx="10.8"/>
<rect x="527.2" y="679.2" width="21.6" height="21.6" rx="10.8"/>
<rect x="547.2" y="679.2" width="21.6" height="21.6" rx="10.8"/>
<rect x="567.2" y="679.2" width="21.6" height="21.6" rx="10.8"/>
<rect x="647.2" y="679.2" width="21.6" height="21.6" rx="10.8"/>
<rect x="707.2" y="679.2" width="21.6" height="21.6" rx="10.8"/>
<rect x="787.2" y="679.2" width="21.6" height="21.6" rx="10.8"/>
<rect x="807.2" y="679.2" width="21.6" height="21.6" rx="10.8"/>
<rect x="847.2" y="679.2" width="21.6" height="21.6" rx="10.8"/>
<rect x="327.2" y="699.2" width="21.6" height="21.6" rx="10.8"/>
<rect x="347.2" y="699.2" width="21.6" height="21.6" rx="10.8"/>
<rect x="367.2" y="699.2" width="21.6" height="21.6" rx="10.8"/>
<rect x="407.2" y="699.2" width="21.6" height="21.6" rx="10.8"/>
<rect x="447.2" y="699.2" width="21.6" height="21.6" rx="10.8"/>
<rect x="487.2" y="699.2" width="21.6" height="21.6" rx="10.8"/>
<rect x="507.2" y="699.2" width="21.6" height="21.6" rx="10.8"/>
<rect x="547.2" y="699.2" width="21.6" height="21.6" rx="10.8"/>
<rect x="607.2" y="699.2" width="21.6" height="21.6" rx="10.8"/>
<rect x="647.2" y="699.2" width="21.6" height="21.6" rx="10.8"/>
<rect x="667.2" y="699.2" width="21.6" height="21.6" rx="10.8"/>
<rect x="787.2" y="699.2" width="21.6" height="21.6" rx="10.8"/>
<rect x="807.2" y="699.2" width="21.6" height="21.6" rx="10.8"/>
<rect x="867.2" y="699.2" width="21.6" height="21.6" rx="10.8"/>
<rect x="907.2" y="699.2" width="21.6" height="21.6" rx="10.8"/>
<rect x="947.2" y="699.2" width="21.6" height="21.6" rx="10.8"/>
<rect x="967.2" y="699.2" width="21.6" height="21.6" rx="10.8"/>
<rect x="987.2" y="699.2" width="21.6" height="21.6" rx="10.8"/>
<rect x="1047.2" y="699.2" width="21.6" height="21.6" rx="10.8"/>
<rect x="1067.2" y="699.2" width="21.6" height="21.6" rx="10.8"/>
<rect x="1087.2" y="699.2" width="21.6" height="21.6" rx="10.8"/>
<rect x="287.2" y="719.2" width="21.6" height="21.6" rx="10.8"/>
<rect x="307.2" y="719.2" width="21.6" height="21.6" rx="10.8"/>
<rect x="327.2" y="719.2" width="21.6" height="21.6" rx="10.8"/>
<rect x="367.2" y="719.2" width="21.6" height="21.6" rx="10.8"/>
<rect x="467.2" y="719.2" width="21.6" height="21.6" rx="10.8"/>
<rect x="487.2" y="719.2" width="21.6" height="21.6" rx="10.8"/>
<rect x="567.2" y="719.2" width="21.6" height="21.6" rx="10.8"/>
<rect x="607.2" y="719.2" width="21.6" height="21.6" rx="10.8"/>
<rect x="627.2" y="719.2" width="21.6" height="21.6" rx="10.8"/>
<rect x="687.2" y="719.2" width="21.6" height="21.6" rx="10.8"/>
<rect x="707.2" y="719.2" width="21.6" height="21.6" rx="10.8"/>
<rect x="747.2" y="719.2" width="21.6" height="21.6" rx="10.8"/>
<rect x="767.2" y="719.2" width="21.6" height="21.6" rx="10.8"/>
<rect x="787.2" y="719.2" width="21.6" height="21.6" rx="10.8"/>
<rect x="807.2" y="719.2" width="21.6" height="21.6" rx="10.8"/>
<rect x="847.2" y="719.2" width="21.6" height="21.6" rx="10.8"/>
<rect x="887.2" y="719.2" width="21.6" height="21.6" rx="10.8"/>
<rect x="907.2" y="719.2" width="21.6" height="21.6" rx="10.8"/>
<rect x="927.2" y="719.2" width="21.6" height="21.6" rx="10.8"/>
<rect x="967.2" y="719.2" width="21.6" height="21.6" rx="10.8"/>
<rect x="987.2" y="719.2" width="21.6" height="21.6" rx="10.8"/>
<rect x="1007.2" y="719.2" width="21.6" height="21.6" rx="10.8"/>
<rect x="1047.2" y="719.2" width="21.6" height="21.6" rx="10.8"/>
<rect x="1067.2" y="719.2" width="21.6" height="21.6" rx="10.8"/>
<rect x="1087.2" y="719.2" width="21.6" height="21.6" rx="10.8"/>
<rect x="327.2" y="739.2" width="21.6" height="21.6" rx="10.8"/>
<rect x="347.2" y="739.2" width="21.6" height="21.6" rx="10.8"/>
<rect x="387.2" y="739.2" width="21.6" height="21.6" rx="10.8"/>
<rect x="407.2" y="739.2" width="21.6" height="21.6" rx="10.8"/>
<rect x="447.2" y="739.2" width="21.6" height="21.6" rx="10.8"/>
<rect x="467.2" y="739.2" width="21.6" height="21.6" rx="10.8"/>
<rect x="487.2" y="739.2" width="21.6" height="21.6" rx="10.8"/>
<rect x="527.2" y="739.2" width="21.6" height="21.6" rx="10.8"/>
<rect x="547.2" y="739.2" width="21.6" height="21.6" rx="10.8"/>
<rect x="627.2" y="739.2" width="21.6" height="21.6" rx="10.8"/>
<rect x="687.2" y="739.2" width="21.6" height="21.6" rx="10.8"/>
<rect x="747.2" y="739.2" width="21.6" height="21.6" rx="10.8"/>
<rect x="767.2" y="739.2" width="21.6" height="21.6" rx="10.8"/>
<rect x="787.2" y="739.2" width="21.6" height="21.6" rx="10.8"/>
<rect x="827.2" y="739.2" width="21.6" height="21.6" rx="10.8"/>
<rect x="847.2" y="739.2" width="21.6" height="21.6" rx="10.8"/>
<rect x="927.2" y="739.2" width="21.6" height="21.6" rx="10.8"/>
<rect x="967.2" y="739.2" width="21.6" height="21.6" rx="10.8"/>
<rect x="327.2" y="759.2" width="21.6" height="21.6" rx="10.8"/>
<rect x="347.2" y="759.2" width="21.6" height="21.6" rx="10.8"/>
<rect x="367.2" y="759.2" width="21.6" height="21.6" rx="10.8"/>
<rect x="427.2" y="759.2" width="21.6" height="21.6" rx="10.8"/>
<rect x="447.2" y="759.2" width="21.6" height="21.6" rx="10.8"/>
<rect x="467.2" y="759.2" width="21.6" height="21.6" rx="10.8"/>
<rect x="487.2" y="759.2" width="21.6" height="21.6" rx="10.8"/>
<rect x="507.2" y="759.2" width="21.6" height="21.6" rx="10.8"/>
<rect x="527.2" y="759.2" width="21.6" height="21.6" rx="10.8"/>
<rect x="707.2" y="759.2" width="21.6" height="21.6" rx="10.8"/>
<rect x="727.2" y="759.2" width="21.6" height="21.6" rx="10.8"/>
<rect x="747.2" y="759.2" width="21.6" height="21.6" rx="10.8"/>
<rect x="767.2" y="759.2" width="21.6" height="21.6" rx="10.8"/>
<rect x="787.2" y="759.2" width="21.6" height="21.6" rx="10.8"/>
<rect x="807.2" y="759.2" width="21.6" height="21.6" rx="10.8"/>
<rect x="907.2" y="759.2" width="21.6" height="21.6" rx="10.8"/>
<rect x="927.2" y="759.2" width="21.6" height="21.6" rx="10.8"/>
<rect x="947.2" y="759.2" width="21.6" height="21.6" rx="10.8"/>
<rect x="967.2" y="759.2" width="21.6" height="21.6" rx="10.8"/>
<rect x="1007.2" y="759.2" width="21.6" height="21.6" rx="10.8"/>
<rect x="1027.2" y="759.2" width="21.6" height="21.6" rx="10.8"/>
<rect x="1087.2" y="759.2" width="21.6" height="21.6" rx="10.8"/>
<rect x="287.2" y="779.2" width="21.6" height="21.6" rx="10.8"/>
<rect x="367.2" y="779.2" width="21.6" height="21.6" rx="10.8"/>
<rect x="407.2" y="779.2" width="21.6" height="21.6" rx="10.8"/>
<rect x="427.2" y="779.2" width="21.6" height="21.6" rx="10.8"/>
<rect x="487.2" y="779.2" width="21.6" height="21.6" rx="10.8"/>
<rect x="507.2" y="779.2" width="21.6" height="21.6" rx="10.8"/>
<rect x="527.2" y="779.2" width="21.6" height="21.6" rx="10.8"/>
<rect x="547.2" y="779.2" width="21.6" height="21.6" rx="10.8"/>
<rect x="567.2" y="779.2" width="21.6" height="21.6" rx="10.8"/>
<rect x="587.2" y="779.2" width="21.6" height="21.6" rx="10.8"/>
<rect x="627.2" y="779.2" width="21.6" height="21.6" rx="10.8"/>
<rect x="647.2" y="779.2" width="21.6" height="21.6" rx="10.8"/>
<rect x="707.2" y="779.2" width="21.6" height="21.6" rx="10.8"/>
<rect x="767.2" y="779.2" width="21.6" height="21.6" rx="10.8"/>
<rect x="787.2" y="779.2" width="21.6" height="21.6" rx="10.8"/>
<rect x="807.2" y="779.2" width="21.6" height="21.6" rx="10.8"/>
<rect x="827.2" y="779.2" width="21.6" height="21.6" rx="10.8"/>
<rect x="867.2" y="779.2" width="21.6" height="21.6" rx="10.8"/>
<rect x="907.2" y="779.2" width="21.6" height="21.6" rx="10.8"/>
<rect x="927.2" y="779.2" width="21.6" height="21.6" rx="10.8"/>
<rect x="967.2" y="779.2" width="21.6" height="21.6" rx="10.8"/>
<rect x="1027.2" y="779.2" width="21.6" height="21.6" rx="10.8"/>
<rect x="1047.2" y="779.2" width="21.6" height="21.6" rx="10.8"/>
<rect x="1087.2" y="779.2" width="21.6" height="21.6" rx="10.8"/>
<rect x="287.2" y="799.2" width="21.6" height="21.6" rx="10.8"/>
<rect x="307.2" y="799.2" width="21.6" height="21.6" rx="10.8"/>
<rect x="327.2" y="799.2" width="21.6" height="21.6" rx="10.8"/>
<rect x="367.2" y="799.2" width="21.6" height="21.6" rx="10.8"/>
<rect x="447.2" y="799.2" width="21.6" height="21.6" rx="10.8"/>
<rect x="487.2" y="799.2" width="21.6" height="21.6" rx="10.8"/>
<rect x="547.2" y="799.2" width="21.6" height="21.6" rx="10.8"/>
<rect x="567.2" y="799.2" width="21.6" height="21.6" rx="10.8"/>
<rect x="587.2" y="799.2" width="21.6" height="21.6" rx="10.8"/>
<rect x="607.2" y="799.2" width="21.6" height="21.6" rx="10.8"/>
<rect x="647.2" y="799.2" width="21.6" height="21.6" rx="10.8"/>
<rect x="687.2" y="799.2" width="21.6" height="21.6" rx="10.8"/>
<rect x="707.2" y="799.2" width="21.6" height="21.6" rx="10.8"/>
<rect x="727.2" y="799.2" width="21.6" height="21.6" rx="10.8"/>
<rect x="767.2" y="799.2" width="21.6" height="21.6" rx="10.8"/>
<rect x="787.2" y="799.2" width="21.6" height="21.6" rx="10.8"/>
<rect x="827.2" y="799.2" width="21.6" height="21.6" rx="10.8"/>
<rect x="847.2" y="799.2" width="21.6" height="21.6" rx="10.8"/>
<rect x="867.2" y="799.2" width="21.6" height="21.6" rx="10.8"/>
<rect x="887.2" y="799.2" width="21.6" height="21.6" rx="10.8"/>
<rect x="947.2" y="799.2" width="21.6" height="21.6" rx="10.8"/>
<rect x="987.2" y="799.2" width="21.6" height="21.6" rx="10.8"/>
<rect x="1007.2" y="799.2" width="21.6" height="21.6" rx="10.8"/>
<rect x="1027.2" y="799.2" width="21.6" height="21.6" rx="10.8"/>
<rect x="1087.2" y="799.2" width="21.6" height="21.6" rx="10.8"/>
<rect x="287.2" y="819.2" width="21.6" height="21.6" rx="10.8"/>
<rect x="307.2" y="819.2" width="21.6" height="21.6" rx="10.8"/>
<rect x="387.2" y="819.2" width="21.6" height="21.6" rx="10.8"/>
<rect x="407.2" y="819.2" width="21.6" height="21.6" rx="10.8"/>
<rect x="427.2" y="819.2" width="21.6" height="21.6" rx="10.8"/>
<rect x="447.2" y="819.2" width="21.6" height="21.6" rx="10.8"/>
<rect x="487.2" y="819.2" width="21.6" height="21.6" rx="10.8"/>
<rect x="567.2" y="819.2" width="21.6" height="21.6" rx="10.8"/>
<rect x="587.2" y="819.2" width="21.6" height="21.6" rx="10.8"/>
<rect x="607.2" y="819.2" width="21.6" height="21.6" rx="10.8"/>
<rect x="627.2" y="819.2" width="21.6" height="21.6" rx="10.8"/>
<rect x="647.2" y="819.2" width="21.6" height="21.6" rx="10.8"/>
<rect x="707.2" y="819.2" width="21.6" height="21.6" rx="10.8"/>
<rect x="747.2" y="819.2" width="21.6" height="21.6" rx="10.8"/>
<rect x="767.2" y="819.2" width="21.6" height="21.6" rx="10.8"/>
<rect x="787.2" y="819.2" width="21.6" height="21.6" rx="10.8"/>
<rect x="887.2" y="819.2" width="21.6" height="21.6" rx="10.8"/>
<rect x="927.2" y="819.2" width="21.6" height="21.6" rx="10.8"/>
<rect x="947.2" y="819.2" width="21.6" height="21.6" rx="10.8"/>
<rect x="1027.2" y="819.2" width="21.6" height="21.6" rx="10.8"/>
<rect x="287.2" y="839.2" width="21.6" height="21.6" rx="10.8"/>
<rect x="327.2" y="839.2" width="21.6" height="21.6" rx="10.8"/>
<rect x="347.2" y="839.2" width="21.6" height="21.6" rx="10.8"/>
<rect x="447.2" y="839.2" width="21.6" height="21.6" rx="10.8"/>
<rect x="487.2" y="839.2" width="21.6" height="21.6" rx="10.8"/>
<rect x="587.2" y="839.2" width="21.6" height="21.6" rx="10.8"/>
<rect x="607.2" y="839.2" width="21.6" height="21.6" rx="10.8"/>
<rect x="627.2" y="839.2" width="21.6" height="21.6" rx="10.8"/>
<rect x="647.2" y="839.2" width="21.6" height="21.6" rx="10.8"/>
<rect x="667.2" y="839.2" width="21.6" height="21.6" rx="10.8"/>
<rect x="707.2" y="839.2" width="21.6" height="21.6" rx="10.8"/>
<rect x="727.2" y="839.2" width="21.6" height="21.6" rx="10.8"/>
<rect x="747.2" y="839.2" width="21.6" height="21.6" rx="10.8"/>
<rect x="767.2" y="839.2" width="21.6" height="21.6" rx="10.8"/>
<rect x="787.2" y="839.2" width="21.6" height="21.6" rx="10.8"/>
<rect x="847.2" y="839.2" width="21.6" height="21.6" rx="10.8"/>
<rect x="887.2" y="839.2" width="21.6" height="21.6" rx="10.8"/>
<rect x="967.2" y="839.2" width="21.6" height="21.6" rx="10.8"/>
<rect x="987.2" y="839.2" width="21.6" height="21.6" rx="10.8"/>
<rect x="1027.2" y="839.2" width="21.6" height="21.6" rx="10.8"/>
<rect x="1087.2" y="839.2" width="21.6" height="21.6" rx="10.8"/>
<rect x="287.2" y="859.2" width="21.6" height="21.6" rx="10.8"/>
<rect x="307.2" y="859.2" width="21.6" height="21.6" rx="10.8"/>
<rect x="327.2" y="859.2" width="21.6" height="21.6" rx="10.8"/>
<rect x="347.2" y="859.2" width="21.6" height="21.6" rx="10.8"/>
<rect x="387.2" y="859.2" width="21.6" height="21.6" rx="10.8"/>
<rect x="407.2" y="859.2" width="21.6" height="21.6" rx="10.8"/>
<rect x="427.2" y="859.2" width="21.6" height="21.6" rx="10.8"/>
<rect x="447.2" y="859.2" width="21.6" height="21.6" rx="10.8"/>
<rect x="487.2" y="859.2" width="21.6" height="21.6" rx="10.8"/>
<rect x="527.2" y="859.2" width="21.6" height="21.6" rx="10.8"/>
<rect x="587.2" y="859.2" width="21.6" height="21.6" rx="10.8"/>
<rect x="627.2" y="859.2" width="21.6" height="21.6" rx="10.8"/>
<rect x="787.2" y="859.2" width="21.6" height="21.6" rx="10.8"/>
<rect x="807.2" y="859.2" width="21.6" height="21.6" rx="10.8"/>
<rect x="847.2" y="859.2" width="21.6" height="21.6" rx="10.8"/>
<rect x="867.2" y="859.2" width="21.6" height="21.6" rx="10.8"/>
<rect x="927.2" y="859.2" width="21.6" height="21.6" rx="10.8"/>
<rect x="947.2" y="859.2" width="21.6" height="21.6" rx="10.8"/>
<rect x="987.2" y="859.2" width="21.6" height="21.6" rx="10.8"/>
<rect x="1027.2" y="859.2" width="21.6" height="21.6" rx="10.8"/>
<rect x="1047.2" y="859.2" width="21.6" height="21.6" rx="10.8"/>
<rect x="1087.2" y="859.2" width="21.6" height="21.6" rx="10.8"/>
<rect x="327.2" y="879.2" width="21.6" height="21.6" rx="10.8"/>
<rect x="347.2" y="879.2" width="21.6" height="21.6" rx="10.8"/>
<rect x="367.2" y="879.2" width="21.6" height="21.6" rx="10.8"/>
<rect x="427.2" y="879.2" width="21.6" height="21.6" rx="10.8"/>
<rect x="527.2" y="879.2" width="21.6" height="21.6" rx="10.8"/>
<rect x="567.2" y="879.2" width="21.6" height="21.6" rx="10.8"/>
<rect x="607.2" y="879.2" width="21.6" height="21.6" rx="10.8"/>
<rect x="847.2" y="879.2" width="21.6" height="21.6" rx="10.8"/>
<rect x="887.2" y="879.2" width="21.6" height="21.6" rx="10.8"/>
<rect x="907.2" y="879.2" width="21.6" height="21.6" rx="10.8"/>
<rect x="927.2" y="879.2" width="21.6" height="21.6" rx="10.8"/>
<rect x="967.2" y="879.2" width="21.6" height="21.6" rx="10.8"/>
<rect x="987.2" y="879.2" width="21.6" height="21.6" rx="10.8"/>
<rect x="1007.2" y="879.2" width="21.6" height="21.6" rx="10.8"/>
<rect x="1067.2" y="879.2" width="21.6" height="21.6" rx="10.8"/>
<rect x="1087.2" y="879.2" width="21.6" height="21.6" rx="10.8"/>
<rect x="327.2" y="899.2" width="21.6" height="21.6" rx="10.8"/>
<rect x="347.2" y="899.2" width="21.6" height="21.6" rx="10.8"/>
<rect x="387.2" y="899.2" width="21.6" height="21.6" rx="10.8"/>
<rect x="407.2" y="899.2" width="21.6" height="21.6" rx="10.8"/>
<rect x="487.2" y="899.2" width="21.6" height="21.6" rx="10.8"/>
<rect x="507.2" y="899.2" width="21.6" height="21.6" rx="10.8"/>
<rect x="527.2" y="899.2" width="21.6" height="21.6" rx="10.8"/>
<rect x="807.2" y="899.2" width="21.6" height="21.6" rx="10.8"/>
<rect x="827.2" y="899.2" width="21.6" height="21.6" rx="10.8"/>
<rect x="847.2" y="899.2" width="21.6" height="21.6" rx="10.8"/>
<rect x="887.2" y="899.2" width="21.6" height="21.6" rx="10.8"/>
<rect x="927.2" y="899.2" width="21.6" height="21.6" rx="10.8"/>
<rect x="1007.2" y="899.2" width="21.6" height="21.6" rx="10.8"/>
<rect x="1047.2" y="899.2" width="21.6" height="21.6" rx="10.8"/>
<rect x="287.2" y="919.2" width="21.6" height="21.6" rx="10.8"/>
<rect x="307.2" y="919.2" width="21.6" height="21.6" rx="10.8"/>
<rect x="347.2" y="919.2" width="21.6" height="21.6" rx="10.8"/>
<rect x="447.2" y="919.2" width="21.6" height="21.6" rx="10.8"/>
<rect x="467.2" y="919.2" width="21.6" height="21.6" rx="10.8"/>
<rect x="507.2" y="919.2" width="21.6" height="21.6" rx="10.8"/>
<rect x="527.2" y="919.2" width="21.6" height="21.6" rx="10.8"/>
<rect x="587.2" y="919.2" width="21.6" height="21.6" rx="10.8"/>
<rect x="787.2" y="919.2" width="21.6" height="21.6" rx="10.8"/>
<rect x="827.2" y="919.2" width="21.6" height="21.6" rx="10.8"/>
<rect x="927.2" y="919.2" width="21.6" height="21.6" rx="10.8"/>
<rect x="967.2" y="919.2" width="21.6" height="21.6" rx="10.8"/>
<rect x="1007.2" y="919.2" width="21.6" height="21.6" rx="10.8"/>
<rect x="1027.2" y="919.2" width="21.6" height="21.6" rx="10.8"/>
<rect x="307.2" y="939.2" width="21.6" height="21.6" rx="10.8"/>
<rect x="327.2" y="939.2" width="21.6" height="21.6" rx="10.8"/>
<rect x="347.2" y="939.2" width="21.6" height="21.6" rx="10.8"/>
<rect x="407.2" y="939.2" width="21.6" height="21.6" rx="10.8"/>
<rect x="427.2" y="939.2" width="21.6" height="21.6" rx="10.8"/>
<rect x="447.2" y="939.2" width="21.6" height="21.6" rx="10.8"/>
<rect x="487.2" y="939.2" width="21.6" height="21.6" rx="10.8"/>
<rect x="527.2" y="939.2" width="21.6" height="21.6" rx="10.8"/>
<rect x="547.2" y="939.2" width="21.6" height="21.6" rx="10.8"/>
<rect x="787.2" y="939.2" width="21.6" height="21.6" rx="10.8"/>
<rect x="807.2" y="939.2" width="21.6" height="21.6" rx="10.8"/>
<rect x="887.2" y="939.2" width="21.6" height="21.6" rx="10.8"/>
<rect x="1007.2" y="939.2" width="21.6" height="21.6" rx="10.8"/>
<rect x="1027.2" y="939.2" width="21.6" height="21.6" rx="10.8"/>
<rect x="1047.2" y="939.2" width="21.6" height="21.6" rx="10.8"/>
<rect x="1087.2" y="939.2" width="21.6" height="21.6" rx="10.8"/>
<rect x="307.2" y="959.2" width="21.6" height="21.6" rx="10.8"/>
<rect x="327.2" y="959.2" width="21.6" height="21.6" rx="10.8"/>
<rect x="387.2" y="959.2" width="21.6" height="21.6" rx="10.8"/>
<rect x="467.2" y="959.2" width="21.6" height="21.6" rx="10.8"/>
<rect x="487.2" y="959.2" width="21.6" height="21.6" rx="10.8"/>
<rect x="507.2" y="959.2" width="21.6" height="21.6" rx="10.8"/>
<rect x="527.2" y="959.2" width="21.6" height="21.6" rx="10.8"/>
<rect x="547.2" y="959.2" width="21.6" height="21.6" rx="10.8"/>
<rect x="567.2" y="959.2" width="21.6" height="21.6" rx="10.8"/>
<rect x="587.2" y="959.2" width="21.6" height="21.6" rx="10.8"/>
<rect x="847.2" y="959.2" width="21.6" height="21.6" rx="10.8"/>
<rect x="907.2" y="959.2" width="21.6" height="21.6" rx="10.8"/>
<rect x="927.2" y="959.2" width="21.6" height="21.6" rx="10.8"/>
<rect x="947.2" y="959.2" width="21.6" height="21.6" rx="10.8"/>
<rect x="967.2" y="959.2" width="21.6" height="21.6" rx="10.8"/>
<rect x="1007.2" y="959.2" width="21.6" height="21.6" rx="10.8"/>
<rect x="1027.2" y="959.2" width="21.6" height="21.6" rx="10.8"/>
<rect x="1047.2" y="959.2" width="21.6" height="21.6" rx="10.8"/>
<rect x="1067.2" y="959.2" width="21.6" height="21.6" rx="10.8"/>
<rect x="1087.2" y="959.2" width="21.6" height="21.6" rx="10.8"/>
<rect x="287.2" y="979.2" width="21.6" height="21.6" rx="10.8"/>
<rect x="307.2" y="979.2" width="21.6" height="21.6" rx="10.8"/>
<rect x="347.2" y="979.2" width="21.6" height="21.6" rx="10.8"/>
<rect x="387.2" y="979.2" width="21.6" height="21.6" rx="10.8"/>
<rect x="407.2" y="979.2" width="21.6" height="21.6" rx="10.8"/>
<rect x="427.2" y="979.2" width="21.6" height="21.6" rx="10.8"/>
<rect x="467.2" y="979.2" width="21.6" height="21.6" rx="10.8"/>
<rect x="547.2" y="979.2" width="21.6" height="21.6" rx="10.8"/>
<rect x="567.2" y="979.2" width="21.6" height="21.6" rx="10.8"/>
<rect x="587.2" y="979.2" width="21.6" height="21.6" rx="10.8"/>
<rect x="787.2" y="979.2" width="21.6" height="21.6" rx="10.8"/>
<rect x="807.2" y="979.2" width="21.6" height="21.6" rx="10.8"/>
<rect x="827.2" y="979.2" width="21.6" height="21.6" rx="10.8"/>
<rect x="847.2" y="979.2" width="21.6" height="21.6" rx="10.8"/>
<rect x="887.2" y="979.2" width="21.6" height="21.6" rx="10.8"/>
<rect x="947.2" y="979.2" width="21.6" height="21.6" rx="10.8"/>
<rect x="967.2" y="979.2" width="21.6" height="21.6" rx="10.8"/>
<rect x="1007.2" y="979.2" width="21.6" height="21.6" rx="10.8"/>
<rect x="1047.2" y="979.2" width="21.6" height="21.6" rx="10.8"/>
<rect x="307.2" y="999.2" width="21.6" height="21.6" rx="10.8"/>
<rect x="347.2" y="999.2" width="21.6" height="21.6" rx="10.8"/>
<rect x="467.2" y="999.2" width="21.6" height="21.6" rx="10.8"/>
<rect x="487.2" y="999.2" width="21.6" height="21.6" rx="10.8"/>
<rect x="507.2" y="999.2" width="21.6" height="21.6" rx="10.8"/>
<rect x="527.2" y="999.2" width="21.6" height="21.6" rx="10.8"/>
<rect x="547.2" y="999.2" width="21.6" height="21.6" rx="10.8"/>
<rect x="567.2" y="999.2" width="21.6" height="21.6" rx="10.8"/>
<rect x="587.2" y="999.2" width="21.6" height="21.6" rx="10.8"/>
<rect x="607.2" y="999.2" width="21.6" height="21.6" rx="10.8"/>
<rect x="767.2" y="999.2" width="21.6" height="21.6" rx="10.8"/>
<rect x="787.2" y="999.2" width="21.6" height="21.6" rx="10.8"/>
<rect x="807.2" y="999.2" width="21.6" height="21.6" rx="10.8"/>
<rect x="827.2" y="999.2" width="21.6" height="21.6" rx="10.8"/>
<rect x="927.2" y="999.2" width="21.6" height="21.6" rx="10.8"/>
<rect x="1007.2" y="999.2" width="21.6" height="21.6" rx="10.8"/>
<rect x="1087.2" y="999.2" width="21.6" height="21.6" rx="10.8"/>
<rect x="287.2" y="1019.2" width="21.6" height="21.6" rx="10.8"/>
<rect x="367.2" y="1019.2" width="21.6" height="21.6" rx="10.8"/>
<rect x="387.2" y="1019.2" width="21.6" height="21.6" rx="10.8"/>
<rect x="407.2" y="1019.2" width="21.6" height="21.6" rx="10.8"/>
<rect x="427.2" y="1019.2" width="21.6" height="21.6" rx="10.8"/>
<rect x="447.2" y="1019.2" width="21.6" height="21.6" rx="10.8"/>
<rect x="467.2" y="1019.2" width="21.6" height="21.6" rx="10.8"/>
<rect x="507.2" y="1019.2" width="21.6" height="21.6" rx="10.8"/>
<rect x="527.2" y="1019.2" width="21.6" height="21.6" rx="10.8"/>
<rect x="547.2" y="1019.2" width="21.6" height="21.6" rx="10.8"/>
<rect x="587.2" y="1019.2" width="21.6" height="21.6" rx="10.8"/>
<rect x="607.2" y="1019.2" width="21.6" height="21.6" rx="10.8"/>
<rect x="747.2" y="1019.2" width="21.6" height="21.6" rx="10.8"/>
<rect x="787.2" y="1019.2" width="21.6" height="21.6" rx="10.8"/>
<rect x="867.2" y="1019.2" width="21.6" height="21.6" rx="10.8"/>
<rect x="947.2" y="1019.2" width="21.6" height="21.6" rx="10.8"/>
<rect x="987.2" y="1019.2" width="21.6" height="21.6" rx="10.8"/>
<rect x="1047.2" y="1019.2" width="21.6" height="21.6" rx="10.8"/>
<rect x="1087.2" y="1019.2" width="21.6" height="21.6" rx="10.8"/>
<rect x="327.2" y="1039.2" width="21.6" height="21.6" rx="10.8"/>
<rect x="347.2" y="1039.2" width="21.6" height="21.6" rx="10.8"/>
<rect x="387.2" y="1039.2" width="21.6" height="21.6" rx="10.8"/>
<rect x="487.2" y="1039.2" width="21.6" height="21.6" rx="10.8"/>
<rect x="507.2" y="1039.2" width="21.6" height="21.6" rx="10.8"/>
<rect x="547.2" y="1039.2" width="21.6" height="21.6" rx="10.8"/>
<rect x="587.2" y="1039.2" width="21.6" height="21.6" rx="10.8"/>
<rect x="627.2" y="1039.2" width="21.6" height="21.6" rx="10.8"/>
<rect x="647.2" y="1039.2" width="21.6" height="21.6" rx="10.8"/>
<rect x="687.2" y="1039.2" width="21.6" height="21.6" rx="10.8"/>
<rect x="707.2" y="1039.2" width="21.6" height="21.6" rx="10.8"/>
<rect x="727.2" y="1039.2" width="21.6" height="21.6" rx="10.8"/>
<rect x="767.2" y="1039.2" width="21.6" height="21.6" rx="10.8"/>
<rect x="847.2" y="1039.2" width="21.6" height="21.6" rx="10.8"/>
<rect x="887.2" y="1039.2" width="21.6" height="21.6" rx="10.8"/>
<rect x="907.2" y="1039.2" width="21.6" height="21.6" rx="10.8"/>
<rect x="947.2" y="1039.2" width="21.6" height="21.6" rx="10.8"/>
<rect x="967.2" y="1039.2" width="21.6" height="21.6" rx="10.8"/>
<rect x="987.2" y="1039.2" width="21.6" height="21.6" rx="10.8"/>
<rect x="1007.2" y="1039.2" width="21.6" height="21.6" rx="10.8"/>
<rect x="1027.2" y="1039.2" width="21.6" height="21.6" rx="10.8"/>
<rect x="1067.2" y="1039.2" width="21.6" height="21.6" rx="10.8"/>
<rect x="1087.2" y="1039.2" width="21.6" height="21.6" rx="10.8"/>
<rect x="307.2" y="1059.2" width="21.6" height="21.6" rx="10.8"/>
<rect x="327.2" y="1059.2" width="21.6" height="21.6" rx="10.8"/>
<rect x="347.2" y="1059.2" width="21.6" height="21.6" rx="10.8"/>
<rect x="367.2" y="1059.2" width="21.6" height="21.6" rx="10.8"/>
<rect x="407.2" y="1059.2" width="21.6" height="21.6" rx="10.8"/>
<rect x="527.2" y="1059.2" width="21.6" height="21.6" rx="10.8"/>
<rect x="567.2" y="1059.2" width="21.6" height="21.6" rx="10.8"/>
<rect x="647.2" y="1059.2" width="21.6" height="21.6" rx="10.8"/>
<rect x="687.2" y="1059.2" width="21.6" height="21.6" rx="10.8"/>
<rect x="707.2" y="1059.2" width="21.6" height="21.6" rx="10.8"/>
<rect x="787.2" y="1059.2" width="21.6" height="21.6" rx="10.8"/>
<rect x="807.2" y="1059.2" width="21.6" height="21.6" rx="10.8"/>
<rect x="827.2" y="1059.2" width="21.6" height="21.6" rx="10.8"/>
<rect x="847.2" y="1059.2" width="21.6" height="21.6" rx="10.8"/>
<rect x="867.2" y="1059.2" width="21.6" height="21.6" rx="10.8"/>
<rect x="887.2" y="1059.2" width="21.6" height="21.6" rx="10.8"/>
<rect x="927.2" y="1059.2" width="21.6" height="21.6" rx="10.8"/>
<rect x="947.2" y="1059.2" width="21.6" height="21.6" rx="10.8"/>
<rect x="987.2" y="1059.2" width="21.6" height="21.6" rx="10.8"/>
<rect x="1007.2" y="1059.2" width="21.6" height="21.6" rx="10.8"/>
<rect x="327.2" y="1079.2" width="21.6" height="21.6" rx="10.8"/>
<rect x="347.2" y="1079.2" width="21.6" height="21.6" rx="10.8"/>
<rect x="427.2" y="1079.2" width="21.6" height="21.6" rx="10.8"/>
<rect x="447.2" y="1079.2" width="21.6" height="21.6" rx="10.8"/>
<rect x="487.2" y="1079.2" width="21.6" height="21.6" rx="10.8"/>
<rect x="507.2" y="1079.2" width="21.6" height="21.6" rx="10.8"/>
<rect x="547.2" y="1079.2" width="21.6" height="21.6" rx="10.8"/>
<rect x="587.2" y="1079.2" width="21.6" height="21.6" rx="10.8"/>
<rect x="607.2" y="1079.2" width="21.6" height="21.6" rx="10.8"/>
<rect x="627.2" y="1079.2" width="21.6" height="21.6" rx="10.8"/>
<rect x="647.2" y="1079.2" width="21.6" height="21.6" rx="10.8"/>
<rect x="667.2" y="1079.2" width="21.6" height="21.6" rx="10.8"/>
<rect x="707.2" y="1079.2" width="21.6" height="21.6" rx="10.8"/>
<rect x="727.2" y="1079.2" width="21.6" height="21.6" rx="10.8"/>
<rect x="747.2" y="1079.2" width="21.6" height="21.6" rx="10.8"/>
<rect x="767.2" y="1079.2" width="21.6" height="21.6" rx="10.8"/>
<rect x="827.2" y="1079.2" width="21.6" height="21.6" rx="10.8"/>
<rect x="887.2" y="1079.2" width="21.6" height="21.6" rx="10.8"/>
<rect x="907.2" y="1079.2" width="21.6" height="21.6" rx="10.8"/>
<rect x="927.2" y="1079.2" width="21.6" height="21.6" rx="10.8"/>
<rect x="987.2" y="1079.2" width="21.6" height="21.6" rx="10.8"/>
<rect x="1007.2" y="1079.2" width="21.6" height="21.6" rx="10.8"/>
<rect x="1027.2" y="1079.2" width="21.6" height="21.6" rx="10.8"/>
<rect x="347.2" y="1099.2" width="21.6" height="21.6" rx="10.8"/>
<rect x="367.2" y="1099.2" width="21.6" height="21.6" rx="10.8"/>
<rect x="407.2" y="1099.2" width="21.6" height="21.6" rx="10.8"/>
<rect x="447.2" y="1099.2" width="21.6" height="21.6" rx="10.8"/>
<rect x="527.2" y="1099.2" width="21.6" height="21.6" rx="10.8"/>
<rect x="627.2" y="1099.2" width="21.6" height="21.6" rx="10.8"/>
<rect x="647.2" y="1099.2" width="21.6" height="21.6" rx="10.8"/>
<rect x="667.2" y="1099.2" width="21.6" height="21.6" rx="10.8"/>
<rect x="687.2" y="1099.2" width="21.6" height="21.6" rx="10.8"/>
<rect x="747.2" y="1099.2" width="21.6" height="21.6" rx="10.8"/>
<rect x="827.2" y="1099.2" width="21.6" height="21.6" rx="10.8"/>
<rect x="847.2" y="1099.2" width="21.6" height="21.6" rx="10.8"/>
<rect x="867.2" y="1099.2" width="21.6" height="21.6" rx="10.8"/>
<rect x="887.2" y="1099.2" width="21.6" height="21.6" rx="10.8"/>
<rect x="907.2" y="1099.2" width="21.6" height="21.6" rx="10.8"/>
<rect x="947.2" y="1099.2" width="21.6" height="21.6" rx="10.8"/>
<rect x="1027.2" y="1099.2" width="21.6" height="21.6" rx="10.8"/>
<rect x="1047.2" y="1099.2" width="21.6" height="21.6" rx="10.8"/>
<rect x="1067.2" y="1099.2" width="21.6" height="21.6" rx="10.8"/>
<rect x="1087.2" y="1099.2" width="21.6" height="21.6" rx="10.8"/>
<rect x="287.2" y="1119.2" width="21.6" height="21.6" rx="10.8"/>
<rect x="307.2" y="1119.2" width="21.6" height="21.6" rx="10.8"/>
<rect x="387.2" y="1119.2" width="21.6" height="21.6" rx="10.8"/>
<rect x="447.2" y="1119.2" width="21.6" height="21.6" rx="10.8"/>
<rect x="467.2" y="1119.2" width="21.6" height="21.6" rx="10.8"/>
<rect x="507.2" y="1119.2" width="21.6" height="21.6" rx="10.8"/>
<rect x="527.2" y="1119.2" width="21.6" height="21.6" rx="10.8"/>
<rect x="567.2" y="1119.2" width="21.6" height="21.6" rx="10.8"/>
<rect x="587.2" y="1119.2" width="21.6" height="21.6" rx="10.8"/>
<rect x="627.2" y="1119.2" width="21.6" height="21.6" rx="10.8"/>
<rect x="647.2" y="1119.2" width="21.6" height="21.6" rx="10.8"/>
<rect x="667.2" y="1119.2" width="21.6" height="21.6" rx="10.8"/>
<rect x="747.2" y="1119.2" width="21.6" height="21.6" rx="10.8"/>
<rect x="807.2" y="1119.2" width="21.6" height="21.6" rx="10.8"/>
<rect x="827.2" y="1119.2" width="21.6" height="21.6" rx="10.8"/>
<rect x="867.2" y="1119.2" width="21.6" height="21.6" rx="10.8"/>
<rect x="887.2" y="1119.2" width="21.6" height="21.6" rx="10.8"/>
<rect x="927.2" y="1119.2" width="21.6" height="21.6" rx="10.8"/>
<rect x="1007.2" y="1119.2" width="21.6" height="21.6" rx="10.8"/>
<rect x="1027.2" y="1119.2" width="21.6" height="21.6" rx="10.8"/>
<rect x="1067.2" y="1119.2" width="21.6" height="21.6" rx="10.8"/>
<rect x="1087.2" y="1119.2" width="21.6" height="21.6" rx="10.8"/>
<rect x="287.2" y="1139.2" width="21.6" height="21.6" rx="10.8"/>
<rect x="327.2" y="1139.2" width="21.6" height="21.6" rx="10.8"/>
<rect x="347.2" y="1139.2" width="21.6" height="21.6" rx="10.8"/>
<rect x="407.2" y="1139.2" width="21.6" height="21.6" rx="10.8"/>
<rect x="467.2" y="1139.2" width="21.6" height="21.6" rx="10.8"/>
<rect x="487.2" y="1139.2" width="21.6" height="21.6" rx="10.8"/>
<rect x="567.2" y="1139.2" width="21.6" height="21.6" rx="10.8"/>
<rect x="607.2" y="1139.2" width="21.6" height="21.6" rx="10.8"/>
<rect x="627.2" y="1139.2" width="21.6" height="21.6" rx="10.8"/>
<rect x="647.2" y="1139.2" width="21.6" height="21.6" rx="10.8"/>
<rect x="687.2" y="1139.2" width="21.6" height="21.6" rx="10.8"/>
<rect x="747.2" y="1139.2" width="21.6" height="21.6" rx="10.8"/>
<rect x="787.2" y="1139.2" width="21.6" height="21.6" rx="10.8"/>
<rect x="827.2" y="1139.2" width="21.6" height="21.6" rx="10.8"/>
<rect x="847.2" y="1139.2" width="21.6" height="21.6" rx="10.8"/>
<rect x="887.2" y="1139.2" width="21.6" height="21.6" rx="10.8"/>
<rect x="907.2" y="1139.2" width="21.6" height="21.6" rx="10.8"/>
<rect x="947.2" y="1139.2" width="21.6" height="21.6" rx="10.8"/>
<rect x="967.2" y="1139.2" width="21.6" height="21.6" rx="10.8"/>
<rect x="1007.2" y="1139.2" width="21.6" height="21.6" rx="10.8"/>
<rect x="287.2" y="1159.2" width="21.6" height="21.6" rx="10.8"/>
<rect x="427.2" y="1159.2" width="21.6" height="21.6" rx="10.8"/>
<rect x="447.2" y="1159.2" width="21.6" height="21.6" rx="10.8"/>
<rect x="507.2" y="1159.2" width="21.6" height="21.6" rx="10.8"/>
<rect x="567.2" y="1159.2" width="21.6" height="21.6" rx="10.8"/>
<rect x="587.2" y="1159.2" width="21.6" height="21.6" rx="10.8"/>
<rect x="607.2" y="1159.2" width="21.6" height="21.6" rx="10.8"/>
<rect x="627.2" y="1159.2" width="21.6" height="21.6" rx="10.8"/>
<rect x="667.2" y="1159.2" width="21.6" height="21.6" rx="10.8"/>
<rect x="687.2" y="1159.2" width="21.6" height="21.6" rx="10.8"/>
<rect x="707.2" y="1159.2" width="21.6" height="21.6" rx="10.8"/>
<rect x="727.2" y="1159.2" width="21.6" height="21.6" rx="10.8"/>
<rect x="747.2" y="1159.2" width="21.6" height="21.6" rx="10.8"/>
<rect x="827.2" y="1159.2" width="21.6" height="21.6" rx="10.8"/>
<rect x="907.2" y="1159.2" width="21.6" height="21.6" rx="10.8"/>
<rect x="927.2" y="1159.2" width="21.6" height="21.6" rx="10.8"/>
<rect x="947.2" y="1159.2" width="21.6" height="21.6" rx="10.8"/>
<rect x="967.2" y="1159.2" width="21.6" height="21.6" rx="10.8"/>
<rect x="1027.2" y="1159.2" width="21.6" height="21.6" rx="10.8"/>
<rect x="1087.2" y="1159.2" width="21.6" height="21.6" rx="10.8"/>
<rect x="287.2" y="1179.2" width="21.6" height="21.6" rx="10.8"/>
<rect x="347.2" y="1179.2" width="21.6" height="21.6" rx="10.8"/>
<rect x="367.2" y="1179.2" width="21.6" height="21.6" rx="10.8"/>
<rect x="387.2" y="1179.2" width="21.6" height="21.6" rx="10.8"/>
<rect x="407.2" y="1179.2" width="21.6" height="21.6" rx="10.8"/>
<rect x="427.2" y="1179.2" width="21.6" height="21.6" rx="10.8"/>
<rect x="467.2" y="1179.2" width="21.6" height="21.6" rx="10.8"/>
<rect x="487.2" y="1179.2" width="21.6" height="21.6" rx="10.8"/>
<rect x="507.2" y="1179.2" width="21.6" height="21.6" rx="10.8"/>
<rect x="547.2" y="1179.2" width="21.6" height="21.6" rx="10.8"/>
<rect x="587.2" y="1179.2" width="21.6" height="21.6" rx="10.8"/>
<rect x="607.2" y="1179.2" width="21.6" height="21.6" rx="10.8"/>
<rect x="647.2" y="1179.2" width="21.6" height="21.6" rx="10.8"/>
<rect x="667.2" y="1179.2" width="21.6" height="21.6" rx="10.8"/>
<rect x="687.2" y="1179.2" width="21.6" height="21.6" rx="10.8"/>
<rect x="707.2" y="1179.2" width="21.6" height="21.6" rx="10.8"/>
<rect x="727.2" y="1179.2" width="21.6" height="21.6" rx="10.8"/>
<rect x="787.2" y="1179.2" width="21.6" height="21.6" rx="10.8"/>
<rect x="807.2" y="1179.2" width="21.6" height="21.6" rx="10.8"/>
<rect x="827.2" y="1179.2" width="21.6" height="21.6" rx="10.8"/>
<rect x="867.2" y="1179.2" width="21.6" height="21.6" rx="10.8"/>
<rect x="907.2" y="1179.2" width="21.6" height="21.6" rx="10.8"/>
<rect x="927.2" y="1179.2" width="21.6" height="21.6" rx="10.8"/>
<rect x="947.2" y="1179.2" width="21.6" height="21.6" rx="10.8"/>
<rect x="967.2" y="1179.2" width="21.6" height="21.6" rx="10.8"/>
<rect x="987.2" y="1179.2" width="21.6" height="21.6" rx="10.8"/>
<rect x="1007.2" y="1179.2" width="21.6" height="21.6" rx="10.8"/>
<rect x="1047.2" y="1179.2" width="21.6" height="21.6" rx="10.8"/>
<rect x="1087.2" y="1179.2" width="21.6" height="21.6" rx="10.8"/>
<rect x="447.2" y="1199.2" width="21.6" height="21.6" rx="10.8"/>
<rect x="487.2" y="1199.2" width="21.6" height="21.6" rx="10.8"/>
<rect x="507.2" y="1199.2" width="21.6" height="21.6" rx="10.8"/>
<rect x="547.2" y="1199.2" width="21.6" height="21.6" rx="10.8"/>
<rect x="567.2" y="1199.2" width="21.6" height="21.6" rx="10.8"/>
<rect x="687.2" y="1199.2" width="21.6" height="21.6" rx="10.8"/>
<rect x="707.2" y="1199.2" width="21.6" height="21.6" rx="10.8"/>
<rect x="747.2" y="1199.2" width="21.6" height="21.6" rx="10.8"/>
<rect x="787.2" y="1199.2" width="21.6" height="21.6" rx="10.8"/>
<rect x="847.2" y="1199.2" width="21.6" height="21.6" rx="10.8"/>
<rect x="867.2" y="1199.2" width="21.6" height="21.6" rx="10.8"/>
<rect x="887.2" y="1199.2" width="21.6" height="21.6" rx="10.8"/>
<rect x="927.2" y="1199.2" width="21.6" height="21.6" rx="10.8"/>
<rect x="1007.2" y="1199.2" width="21.6" height="21.6" rx="10.8"/>
<rect x="1067.2" y="1199.2" width="21.6" height="21.6" rx="10.8"/>
<rect x="1087.2" y="1199.2" width="21.6" height="21.6" rx="10.8"/>
<rect x="467.2" y="1219.2" width="21.6" height="21.6" rx="10.8"/>
<rect x="507.2" y="1219.2" width="21.6" height="21.6" rx="10.8"/>
<rect x="547.2" y="1219.2" width="21.6" height="21.6" rx="10.8"/>
<rect x="587.2" y="1219.2" width="21.6" height="21.6" rx="10.8"/>
<rect x="627.2" y="1219.2" width="21.6" height="21.6" rx="10.8"/>
<rect x="747.2" y="1219.2" width="21.6" height="21.6" rx="10.8"/>
<rect x="807.2" y="1219.2" width="21.6" height="21.6" rx="10.8"/>
<rect x="827.2" y="1219.2" width="21.6" height="21.6" rx="10.8"/>
<rect x="867.2" y="1219.2" width="21.6" height="21.6" rx="10.8"/>
<rect x="907.2" y="1219.2" width="21.6" height="21.6" rx="10.8"/>
<rect x="927.2" y="1219.2" width="21.6" height="21.6" rx="10.8"/>
<rect x="967.2" y="1219.2" width="21.6" height="21.6" rx="10.8"/>
<rect x="1007.2" y="1219.2" width="21.6" height="21.6" rx="10.8"/>
<rect x="1047.2" y="1219.2" width="21.6" height="21.6" rx="10.8"/>
<rect x="1067.2" y="1219.2" width="21.6" height="21.6" rx="10.8"/>
<rect x="467.2" y="1239.2" width="21.6" height="21.6" rx="10.8"/>
<rect x="507.2" y="1239.2" width="21.6" height="21.6" rx="10.8"/>
<rect x="547.2" y="1239.2" width="21.6" height="21.6" rx="10.8"/>
<rect x="567.2" y="1239.2" width="21.6" height="21.6" rx="10.8"/>
<rect x="587.2" y="1239.2" width="21.6" height="21.6" rx="10.8"/>
<rect x="607.2" y="1239.2" width="21.6" height="21.6" rx="10.8"/>
<rect x="627.2" y="1239.2" width="21.6" height="21.6" rx="10.8"/>
<rect x="647.2" y="1239.2" width="21.6" height="21.6" rx="10.8"/>
<rect x="667.2" y="1239.2" width="21.6" height="21.6" rx="10.8"/>
<rect x="767.2" y="1239.2" width="21.6" height="21.6" rx="10.8"/>
<rect x="787.2" y="1239.2" width="21.6" height="21.6" rx="10.8"/>
<rect x="807.2" y="1239.2" width="21.6" height="21.6" rx="10.8"/>
<rect x="867.2" y="1239.2" width="21.6" height="21.6" rx="10.8"/>
<rect x="887.2" y="1239.2" width="21.6" height="21.6" rx="10.8"/>
<rect x="907.2" y="1239.2" width="21.6" height="21.6" rx="10.8"/>
<rect x="927.2" y="1239.2" width="21.6" height="21.6" rx="10.8"/>
<rect x="1007.2" y="1239.2" width="21.6" height="21.6" rx="10.8"/>
<rect x="1027.2" y="1239.2" width="21.6" height="21.6" rx="10.8"/>
<rect x="447.2" y="1259.2" width="21.6" height="21.6" rx="10.8"/>
<rect x="467.2" y="1259.2" width="21.6" height="21.6" rx="10.8"/>
<rect x="487.2" y="1259.2" width="21.6" height="21.6" rx="10.8"/>
<rect x="547.2" y="1259.2" width="21.6" height="21.6" rx="10.8"/>
<rect x="567.2" y="1259.2" width="21.6" height="21.6" rx="10.8"/>
<rect x="607.2" y="1259.2" width="21.6" height="21.6" rx="10.8"/>
<rect x="647.2" y="1259.2" width="21.6" height="21.6" rx="10.8"/>
<rect x="707.2" y="1259.2" width="21.6" height="21.6" rx="10.8"/>
<rect x="727.2" y="1259.2" width="21.6" height="21.6" rx="10.8"/>
<rect x="827.2" y="1259.2" width="21.6" height="21.6" rx="10.8"/>
<rect x="927.2" y="1259.2" width="21.6" height="21.6" rx="10.8"/>
<rect x="947.2" y="1259.2" width="21.6" height="21.6" rx="10.8"/>
<rect x="967.2" y="1259.2" width="21.6" height="21.6" rx="10.8"/>
<rect x="987.2" y="1259.2" width="21.6" height="21.6" rx="10.8"/>
<rect x="1007.2" y="1259.2" width="21.6" height="21.6" rx="10.8"/>
<rect x="1047.2" y="1259.2" width="21.6" height="21.6" rx="10.8"/>
<rect x="1067.2" y="1259.2" width="21.6" height="21.6" rx="10.8"/>
<rect x="1087.2" y="1259.2" width="21.6" height="21.6" rx="10.8"/>
<rect x="447.2" y="1279.2" width="21.6" height="21.6" rx="10.8"/>
<rect x="487.2" y="1279.2" width="21.6" height="21.6" rx="10.8"/>
<rect x="507.2" y="1279.2" width="21.6" height="21.6" rx="10.8"/>
<rect x="627.2" y="1279.2" width="21.6" height="21.6" rx="10.8"/>
<rect x="667.2" y="1279.2" width="21.6" height="21.6" rx="10.8"/>
<rect x="687.2" y="1279.2" width="21.6" height="21.6" rx="10.8"/>
<rect x="727.2" y="1279.2" width="21.6" height="21.6" rx="10.8"/>
<rect x="747.2" y="1279.2" width="21.6" height="21.6" rx="10.8"/>
<rect x="767.2" y="1279.2" width="21.6" height="21.6" rx="10.8"/>
<rect x="807.2" y="1279.2" width="21.6" height="21.6" rx="10.8"/>
<rect x="847.2" y="1279.2" width="21.6" height="21.6" rx="10.8"/>
<rect x="887.2" y="1279.2" width="21.6" height="21.6" rx="10.8"/>
<rect x="907.2" y="1279.2" width="21.6" height="21.6" rx="10.8"/>
<rect x="947.2" y="1279.2" width="21.6" height="21.6" rx="10.8"/>
<rect x="987.2" y="1279.2" width="21.6" height="21.6" rx="10.8"/>
<rect x="1027.2" y="1279.2" width="21.6" height="21.6" rx="10.8"/>
<rect x="1047.2" y="1279.2" width="21.6" height="21.6" rx="10.8"/>
<rect x="1067.2" y="1279.2" width="21.6" height="21.6" rx="10.8"/>
<rect x="1087.2" y="1279.2" width="21.6" height="21.6" rx="10.8"/>
<rect x="447.2" y="1299.2" width="21.6" height="21.6" rx="10.8"/>
<rect x="507.2" y="1299.2" width="21.6" height="21.6" rx="10.8"/>
<rect x="587.2" y="1299.2" width="21.6" height="21.6" rx="10.8"/>
<rect x="607.2" y="1299.2" width="21.6" height="21.6" rx="10.8"/>
<rect x="647.2" y="1299.2" width="21.6" height="21.6" rx="10.8"/>
<rect x="707.2" y="1299.2" width="21.6" height="21.6" rx="10.8"/>
<rect x="767.2" y="1299.2" width="21.6" height="21.6" rx="10.8"/>
<rect x="807.2" y="1299.2" width="21.6" height="21.6" rx="10.8"/>
<rect x="827.2" y="1299.2" width="21.6" height="21.6" rx="10.8"/>
<rect x="867.2" y="1299.2" width="21.6" height="21.6" rx="10.8"/>
<rect x="887.2" y="1299.2" width="21.6" height="21.6" rx="10.8"/>
<rect x="907.2" y="1299.2" width="21.6" height="21.6" rx="10.8"/>
<rect x="927.2" y="1299.2" width="21.6" height="21.6" rx="10.8"/>
<rect x="947.2" y="1299.2" width="21.6" height="21.6" rx="10.8"/>
<rect x="967.2" y="1299.2" width="21.6" height="21.6" rx="10.8"/>
<rect x="987.2" y="1299.2" width="21.6" height="21.6" rx="10.8"/>
<rect x="1007.2" y="1299.2" width="21.6" height="21.6" rx="10.8"/>
<rect x="1027.2" y="1299.2" width="21.6" height="21.6" rx="10.8"/>
<rect x="1047.2" y="1299.2" width="21.6" height="21.6" rx="10.8"/>
<rect x="1067.2" y="1299.2" width="21.6" height="21.6" rx="10.8"/>
<rect x="467.2" y="1319.2" width="21.6" height="21.6" rx="10.8"/>
<rect x="527.2" y="1319.2" width="21.6" height="21.6" rx="10.8"/>
<rect x="567.2" y="1319.2" width="21.6" height="21.6" rx="10.8"/>
<rect x="687.2" y="1319.2" width="21.6" height="21.6" rx="10.8"/>
<rect x="727.2" y="1319.2" width="21.6" height="21.6" rx="10.8"/>
<rect x="767.2" y="1319.2" width="21.6" height="21.6" rx="10.8"/>
<rect x="787.2" y="1319.2" width="21.6" height="21.6" rx="10.8"/>
<rect x="847.2" y="1319.2" width="21.6" height="21.6" rx="10.8"/>
<rect x="887.2" y="1319.2" width="21.6" height="21.6" rx="10.8"/>
<rect x="907.2" y="1319.2" width="21.6" height="21.6" rx="10.8"/>
<rect x="927.2" y="1319.2" width="21.6" height="21.6" rx="10.8"/>
<rect x="947.2" y="1319.2" width="21.6" height="21.6" rx="10.8"/>
<rect x="967.2" y="1319.2" width="21.6" height="21.6" rx="10.8"/>
<rect x="1007.2" y="1319.2" width="21.6" height="21.6" rx="10.8"/>
<rect x="1067.2" y="1319.2" width="21.6" height="21.6" rx="10.8"/>
<rect x="467.2" y="1339.2" width="21.6" height="21.6" rx="10.8"/>
<rect x="507.2" y="1339.2" width="21.6" height="21.6" rx="10.8"/>
<rect x="647.2" y="1339.2" width="21.6" height="21.6" rx="10.8"/>
<rect x="687.2" y="1339.2" width="21.6" height="21.6" rx="10.8"/>
<rect x="727.2" y="1339.2" width="21.6" height="21.6" rx="10.8"/>
<rect x="767.2" y="1339.2" width="21.6" height="21.6" rx="10.8"/>
<rect x="787.2" y="1339.2" width="21.6" height="21.6" rx="10.8"/>
<rect x="867.2" y="1339.2" width="21.6" height="21.6" rx="10.8"/>
<rect x="907.2" y="1339.2" width="21.6" height="21.6" rx="10.8"/>
<rect x="987.2" y="1339.2" width="21.6" height="21.6" rx="10.8"/>
<rect x="1007.2" y="1339.2" width="21.6" height="21.6" rx="10.8"/>
</g>
<rect x="288" y="540" width="140" height="140" rx="20.0" fill="#15121b"/>
<rect x="308" y="560" width="100" height="100" rx="13.6" fill="#f4ecda"/>
<rect x="328" y="580" width="60" height="60" rx="9.0" fill="#15121b"/>
<rect x="968" y="540" width="140" height="140" rx="20.0" fill="#15121b"/>
<rect x="988" y="560" width="100" height="100" rx="13.6" fill="#f4ecda"/>
<rect x="1008" y="580" width="60" height="60" rx="9.0" fill="#15121b"/>
<rect x="288" y="1220" width="140" height="140" rx="20.0" fill="#15121b"/>
<rect x="308" y="1240" width="100" height="100" rx="13.6" fill="#f4ecda"/>
<rect x="328" y="1260" width="60" height="60" rx="9.0" fill="#15121b"/>
<circle cx="698.0" cy="950.0" r="96.2" fill="#f4ecda"/>
<circle cx="698.0" cy="950.0" r="95.2" fill="none" stroke="#c9a86a" stroke-opacity=".5" stroke-width="1.6"/>
<path d="M786.8,934.6 L786.8,965.4 L769.1,962.3 L764.4,978.1 L781.0,985.1 L764.4,1011.0 L751.1,998.8 L738.7,1009.5 L748.9,1024.4 L720.9,1037.2 L716.3,1019.8 L700.1,1022.1 L700.6,1040.1 L670.1,1035.7 L675.7,1018.6 L660.8,1011.8 L651.4,1027.2 L628.2,1007.1 L642.2,995.7 L633.3,981.8 L617.1,989.8 L608.4,960.3 L626.3,958.2 L626.3,941.8 L608.4,939.7 L617.1,910.2 L633.3,918.2 L642.2,904.3 L628.2,892.9 L651.4,872.8 L660.8,888.2 L675.7,881.4 L670.1,864.3 L700.6,859.9 L700.1,877.9 L716.3,880.2 L720.9,862.8 L748.9,875.6 L738.7,890.5 L751.1,901.2 L764.4,889.0 L781.0,914.9 L764.4,921.9 L769.1,937.7 Z" fill="url(#gear)" stroke="#9c7f4e" stroke-width="1.6" stroke-linejoin="round"/>
<circle cx="698.0" cy="950.0" r="41.5" fill="#f4ecda" fill-opacity=".22"/>
<circle cx="698.0" cy="950.0" r="41.5" fill="none" stroke="#9c7f4e" stroke-opacity=".55" stroke-width="1.4"/>
<circle cx="752.1" cy="950.0" r="6.8" fill="#9c7f4e" fill-opacity=".5"/>
<circle cx="725.0" cy="996.8" r="6.8" fill="#9c7f4e" fill-opacity=".5"/>
<circle cx="671.0" cy="996.8" r="6.8" fill="#9c7f4e" fill-opacity=".5"/>
<circle cx="643.9" cy="950.0" r="6.8" fill="#9c7f4e" fill-opacity=".5"/>
<circle cx="671.0" cy="903.2" r="6.8" fill="#9c7f4e" fill-opacity=".5"/>
<circle cx="725.0" cy="903.2" r="6.8" fill="#9c7f4e" fill-opacity=".5"/>
<circle cx="698.0" cy="950.0" r="11.7" fill="#9c7f4e"/>
<text class="mono" x="698.0" y="1618" text-anchor="middle" fill="#f4f1ea" font-size="30" letter-spacing="8">SCAN  TO  ENTER  THE  MECHANISM</text>
<text class="mono" x="698.0" y="1680" text-anchor="middle" fill="#c9a86a" font-size="26" letter-spacing="3">cabaci-eth.github.io/orrery-exhibition</text>
</svg>